<svg id="visual" viewBox="0 0 900 600" width="900" height="600" xmlns="http://www.w3.org/2000/svg" xmlns:xlink="http://www.w3.org/1999/xlink" version="1.1"><rect x="0" y="0" width="900" height="600" fill="#D9CDBF"></rect><path d="M0 414L21.5 423.3C43 432.7 86 451.3 128.8 449.7C171.7 448 214.3 426 257.2 423.7C300 421.3 343 438.7 385.8 442.2C428.7 445.7 471.3 435.3 514.2 433.2C557 431 600 437 642.8 434C685.7 431 728.3 419 771.2 422.7C814 426.3 857 445.7 878.5 455.3L900 465L900 601L878.5 601C857 601 814 601 771.2 601C728.3 601 685.7 601 642.8 601C600 601 557 601 514.2 601C471.3 601 428.7 601 385.8 601C343 601 300 601 257.2 601C214.3 601 171.7 601 128.8 601C86 601 43 601 21.5 601L0 601Z" fill="#8ca672"></path><path d="M0 471L21.5 474.5C43 478 86 485 128.8 486.8C171.7 488.7 214.3 485.3 257.2 485.3C300 485.3 343 488.7 385.8 486.2C428.7 483.7 471.3 475.3 514.2 470.8C557 466.3 600 465.7 642.8 470.3C685.7 475 728.3 485 771.2 489.3C814 493.7 857 492.3 878.5 491.7L900 491L900 601L878.5 601C857 601 814 601 771.2 601C728.3 601 685.7 601 642.8 601C600 601 557 601 514.2 601C471.3 601 428.7 601 385.8 601C343 601 300 601 257.2 601C214.3 601 171.7 601 128.8 601C86 601 43 601 21.5 601L0 601Z" fill="#7bad88"></path><path d="M0 516L21.5 514C43 512 86 508 128.8 506.3C171.7 504.7 214.3 505.3 257.2 502.2C300 499 343 492 385.8 486C428.7 480 471.3 475 514.2 475.2C557 475.3 600 480.7 642.8 485C685.7 489.3 728.3 492.7 771.2 490.5C814 488.3 857 480.7 878.5 476.8L900 473L900 601L878.5 601C857 601 814 601 771.2 601C728.3 601 685.7 601 642.8 601C600 601 557 601 514.2 601C471.3 601 428.7 601 385.8 601C343 601 300 601 257.2 601C214.3 601 171.7 601 128.8 601C86 601 43 601 21.5 601L0 601Z" fill="#71b19f"></path><path d="M0 544L21.5 537.3C43 530.7 86 517.3 128.8 514.2C171.7 511 214.3 518 257.2 525.2C300 532.3 343 539.7 385.8 544C428.7 548.3 471.3 549.7 514.2 542.8C557 536 600 521 642.8 515.5C685.7 510 728.3 514 771.2 519.3C814 524.7 857 531.3 878.5 534.7L900 538L900 601L878.5 601C857 601 814 601 771.2 601C728.3 601 685.7 601 642.8 601C600 601 557 601 514.2 601C471.3 601 428.7 601 385.8 601C343 601 300 601 257.2 601C214.3 601 171.7 601 128.8 601C86 601 43 601 21.5 601L0 601Z" fill="#72b4b3"></path><path d="M0 567L21.5 565.7C43 564.3 86 561.7 128.8 560.5C171.7 559.3 214.3 559.7 257.2 557C300 554.3 343 548.7 385.8 546.5C428.7 544.3 471.3 545.7 514.2 549.3C557 553 600 559 642.8 562C685.7 565 728.3 565 771.2 563.3C814 561.7 857 558.3 878.5 556.7L900 555L900 601L878.5 601C857 601 814 601 771.2 601C728.3 601 685.7 601 642.8 601C600 601 557 601 514.2 601C471.3 601 428.7 601 385.8 601C343 601 300 601 257.2 601C214.3 601 171.7 601 128.8 601C86 601 43 601 21.5 601L0 601Z" fill="#7eb5c2"></path></svg>